<?xml version="1.0" encoding="utf-8"?>
<svg xmlns="http://www.w3.org/2000/svg" id="logo" viewBox="0 0 200 60" preserveAspectRatio="xMinYMin meet" role="img" class="replaced-svg" aria-labelledby="svg-desc-0" width="200px" height="60px">
  <desc id="svg-desc-0">UA Ruhr</desc>
  <path id="green" d="M63.74,15v26.24c0,3.75-1.95,5.47-5.48,5.47h-9.59c-3.53,0-5.48-1.72-5.48-5.47V15H15.07V0H7.72V15H0v7.42H7.72v18.67c0,8.03,5.4,12.97,12.82,12.97h3.82l.15-7.42h-3.97c-3.52,0-5.47-1.87-5.47-5.55V22.42h20.77v18.82c0,7.95,5.55,12.82,12.83,12.82h9.59c7.28,0,12.83-4.87,12.83-12.82V15h-7.35Z" style="fill:#83b818;"/>
  <g id="black">
    <path d="M96.58,27.77l-.15-2.21c-.17,.39-.4,.74-.7,1.05-.3,.32-.64,.59-1,.8s-.77,.39-1.19,.5c-.43,.12-.85,.18-1.27,.18-.72,0-1.35-.1-1.89-.31-.54-.21-1.03-.5-1.44-.87-.7-.62-1.22-1.4-1.56-2.35-.34-.95-.5-1.96-.5-3.05s.16-2.02,.48-2.96c.32-.94,.81-1.72,1.48-2.36,.42-.4,.91-.72,1.47-.95s1.21-.35,1.95-.35c.45,0,.89,.06,1.32,.18,.43,.12,.82,.28,1.19,.5,.37,.22,.7,.48,.99,.78s.52,.63,.69,.98v-7.68h1.26V27.77h-1.11Zm-.13-6.28c0-.94-.12-1.77-.35-2.5-.24-.73-.64-1.36-1.23-1.9-.32-.3-.69-.54-1.12-.72-.43-.18-.93-.26-1.52-.26s-1.1,.1-1.53,.3c-.44,.2-.82,.47-1.16,.8-.49,.54-.84,1.18-1.07,1.93-.23,.75-.34,1.53-.34,2.33,0,.9,.13,1.75,.39,2.54,.26,.79,.68,1.44,1.27,1.96,.32,.28,.68,.5,1.08,.65,.4,.15,.87,.23,1.41,.23s1.04-.09,1.46-.28c.42-.18,.79-.43,1.1-.73,.57-.55,.98-1.2,1.23-1.95,.25-.74,.38-1.55,.38-2.42Z"/>
    <path d="M112.53,21.49c0,1.07-.13,2.03-.4,2.86-.27,.84-.73,1.58-1.38,2.23-.44,.44-.96,.8-1.57,1.08-.61,.28-1.31,.43-2.1,.43s-1.49-.14-2.1-.43c-.61-.28-1.13-.64-1.57-1.08-.65-.65-1.11-1.4-1.38-2.23-.27-.84-.4-1.79-.4-2.86s.13-2.02,.4-2.86c.27-.84,.73-1.58,1.38-2.23,.44-.44,.96-.79,1.57-1.08,.61-.28,1.31-.43,2.1-.43s1.49,.14,2.1,.43c.61,.29,1.13,.64,1.57,1.08,.65,.65,1.11,1.4,1.38,2.23,.27,.84,.4,1.79,.4,2.86Zm-1.28,0c0-.82-.09-1.59-.28-2.31-.18-.72-.56-1.37-1.13-1.96-.34-.33-.73-.6-1.18-.8-.45-.2-.98-.3-1.58-.3s-1.13,.1-1.58,.3c-.45,.2-.84,.47-1.18,.8-.57,.59-.95,1.24-1.13,1.96s-.28,1.49-.28,2.31,.09,1.59,.28,2.31c.18,.72,.56,1.37,1.13,1.96,.33,.34,.73,.6,1.18,.8,.45,.2,.98,.3,1.58,.3s1.13-.1,1.58-.3c.45-.2,.84-.47,1.18-.8,.57-.59,.95-1.24,1.13-1.96,.18-.72,.28-1.49,.28-2.31Z"/>
    <path d="M122.94,16.42c-.2-.05-.41-.08-.61-.1-.21-.02-.41-.03-.61-.03-.79,0-1.44,.16-1.95,.48-.51,.32-.92,.74-1.22,1.26-.3,.52-.51,1.1-.64,1.76-.13,.65-.19,1.31-.19,1.96v6.02h-1.26V15.21h1.1l.15,2.54c.28-.87,.8-1.53,1.54-1.98s1.56-.68,2.45-.68c.2,0,.41,0,.61,.01,.21,0,.41,.03,.61,.06v1.26h0Z"/>
    <path d="M132.03,27.64c-.35,.08-.7,.16-1.04,.21-.34,.06-.69,.09-1.04,.09-1.17,0-2-.34-2.5-1.02-.49-.68-.74-1.56-.74-2.65v-7.91h-2.51v-1.15h2.51v-3.47l1.26-.3v3.77h3.89v1.15h-3.89v7.86c0,.37,.03,.71,.09,1.02,.06,.31,.17,.58,.33,.8,.16,.23,.37,.4,.64,.53,.27,.13,.61,.19,1.03,.19,.34,0,.66-.02,.99-.06s.66-.1,.99-.16v1.1h0Z"/>
    <path d="M151.41,27.77v-8.21c0-1.09-.23-1.94-.68-2.56-.45-.62-1.22-.93-2.31-.93-.49,0-.91,.08-1.27,.23-.36,.15-.68,.36-.97,.63-.49,.47-.85,1.02-1.1,1.66s-.38,1.33-.38,2.08v7.1h-1.28v-8.21c0-1.09-.23-1.94-.69-2.56-.46-.62-1.23-.93-2.32-.93-.49,0-.91,.08-1.27,.23-.36,.15-.68,.36-.97,.63-.57,.54-.96,1.21-1.18,2.01-.22,.8-.33,1.66-.33,2.56v6.28h-1.26V15.21h1.1l.15,2.16c.33-.72,.83-1.31,1.48-1.78,.65-.47,1.43-.7,2.33-.7,1.1,0,1.98,.25,2.62,.74,.64,.49,1.09,1.15,1.34,1.97,.34-.79,.83-1.44,1.49-1.95s1.51-.76,2.55-.76c.74,0,1.37,.11,1.9,.34,.53,.23,.96,.54,1.29,.95,.34,.41,.58,.9,.74,1.46,.16,.56,.24,1.18,.24,1.85v8.28h-1.26Z"/>
    <path d="M166,27.74l-.15-2.28c-.18,.4-.42,.77-.72,1.09-.29,.33-.63,.6-1,.83s-.78,.4-1.22,.52c-.44,.12-.87,.18-1.31,.18-1.46,0-2.56-.41-3.3-1.23-.74-.82-1.12-1.94-1.12-3.36V15.19h1.26v8.21c0,1.1,.25,1.95,.75,2.55,.5,.59,1.33,.89,2.49,.89,.77,0,1.42-.15,1.96-.45,.53-.3,.97-.7,1.29-1.21,.33-.5,.56-1.08,.7-1.72,.14-.64,.21-1.31,.21-2v-6.28h1.26v12.55h-1.1Z"/>
    <path d="M180.79,27.77v-8.21c0-1.1-.25-1.95-.75-2.55-.5-.59-1.33-.89-2.49-.89-.77,0-1.42,.16-1.96,.47-.54,.31-.97,.72-1.29,1.22-.33,.5-.56,1.08-.7,1.72-.14,.64-.21,1.3-.21,1.97v6.28h-1.26V15.21h1.1l.15,2.28c.17-.4,.4-.76,.7-1.08,.3-.32,.64-.59,1.02-.82,.38-.23,.78-.4,1.22-.53,.43-.13,.87-.19,1.31-.19,1.46,0,2.56,.41,3.3,1.23,.74,.82,1.12,1.94,1.12,3.36v8.28h-1.25Z"/>
    <path d="M195.4,27.77l-.15-2.21c-.17,.39-.4,.74-.7,1.05-.3,.32-.64,.59-1,.8-.37,.22-.76,.39-1.19,.5-.43,.12-.85,.18-1.27,.18-.72,0-1.35-.1-1.9-.31-.54-.21-1.03-.5-1.44-.87-.7-.62-1.22-1.4-1.56-2.35-.34-.95-.5-1.96-.5-3.05s.16-2.02,.48-2.96c.32-.94,.81-1.72,1.48-2.36,.42-.4,.91-.72,1.47-.95,.56-.23,1.21-.35,1.95-.35,.45,0,.89,.06,1.32,.18,.43,.12,.82,.28,1.19,.5,.37,.22,.7,.48,.99,.78,.29,.3,.52,.63,.69,.98v-7.68h1.26V27.77h-1.1Zm-.13-6.28c0-.94-.12-1.77-.35-2.5s-.64-1.36-1.23-1.9c-.32-.3-.69-.54-1.12-.72-.43-.18-.93-.26-1.52-.26s-1.1,.1-1.53,.3c-.44,.2-.82,.47-1.16,.8-.49,.54-.84,1.18-1.07,1.93-.23,.75-.34,1.53-.34,2.33,0,.9,.13,1.75,.39,2.54,.26,.79,.68,1.44,1.27,1.96,.32,.28,.68,.5,1.08,.65,.4,.15,.87,.23,1.41,.23s1.04-.09,1.46-.28c.42-.18,.79-.43,1.1-.73,.57-.55,.98-1.2,1.23-1.95,.25-.74,.38-1.55,.38-2.42Z"/>
    <path d="M95.53,54l-.15-2.28c-.18,.4-.42,.77-.72,1.09-.29,.33-.63,.6-1,.83-.38,.23-.78,.4-1.22,.52-.44,.12-.87,.18-1.31,.18-1.46,0-2.56-.41-3.3-1.23-.74-.82-1.12-1.94-1.12-3.36v-8.28h1.26v8.21c0,1.1,.25,1.95,.75,2.55s1.33,.89,2.49,.89c.77,0,1.42-.15,1.96-.45s.97-.7,1.29-1.21c.33-.5,.56-1.08,.7-1.72,.14-.64,.21-1.31,.21-2v-6.28h1.26v12.55h-1.1Z"/>
    <path d="M110.31,54.02v-8.21c0-1.1-.25-1.95-.75-2.55-.5-.59-1.33-.89-2.49-.89-.77,0-1.42,.16-1.96,.47-.54,.31-.97,.72-1.29,1.22-.33,.5-.56,1.08-.7,1.72-.14,.64-.21,1.3-.21,1.97v6.28h-1.26v-12.55h1.1l.15,2.28c.17-.4,.4-.76,.7-1.08,.3-.32,.64-.59,1.02-.82,.38-.23,.78-.4,1.22-.53s.87-.19,1.31-.19c1.46,0,2.56,.41,3.3,1.23,.74,.82,1.12,1.94,1.12,3.36v8.28h-1.26Z"/>
    <path d="M116.24,37.98v-1.76h1.76v1.76h-1.76Zm.23,16.04v-12.55h1.33v12.55h-1.33Z"/>
    <path d="M127.03,54.02h-1.28l-4.97-12.55h1.43l4.22,10.77,4.04-10.77h1.33l-4.77,12.55Z"/>
    <path d="M144.46,48.05h-9.59c.02,.74,.14,1.43,.36,2.07,.23,.64,.54,1.21,.94,1.69,.35,.42,.77,.74,1.27,.98,.49,.24,1.08,.35,1.77,.35,1.12,0,2.03-.37,2.74-1.1,.23-.23,.43-.49,.59-.78,.16-.28,.28-.62,.36-1h1.31c-.08,.54-.25,1.03-.5,1.47-.25,.44-.55,.83-.9,1.17-.45,.45-.98,.81-1.59,1.07s-1.28,.39-2,.39c-.9,0-1.68-.17-2.34-.5-.65-.33-1.21-.76-1.66-1.28-.52-.6-.92-1.31-1.19-2.12s-.41-1.69-.41-2.65c0-.8,.08-1.58,.25-2.33,.17-.75,.49-1.47,.98-2.13,1.07-1.46,2.49-2.18,4.27-2.18,.85,0,1.61,.17,2.27,.5,.66,.34,1.22,.78,1.68,1.34,.46,.56,.81,1.21,1.05,1.95,.24,.74,.36,1.5,.36,2.28l-.02,.83Zm-1.26-1.15c-.02-.6-.12-1.18-.3-1.72-.18-.54-.45-1.03-.8-1.46-.35-.43-.78-.76-1.28-1.02-.5-.25-1.07-.38-1.71-.38s-1.24,.12-1.76,.36c-.52,.24-.96,.57-1.32,.99s-.64,.9-.84,1.46c-.2,.55-.3,1.14-.3,1.76h8.31Z"/>
    <path d="M154.75,42.68c-.2-.05-.41-.08-.61-.1-.21-.02-.41-.03-.61-.03-.79,0-1.44,.16-1.95,.48-.51,.32-.92,.74-1.22,1.26-.3,.52-.51,1.1-.64,1.76-.13,.65-.19,1.31-.19,1.96v6.02h-1.26v-12.55h1.1l.15,2.54c.28-.87,.8-1.53,1.54-1.98,.74-.45,1.56-.68,2.45-.68,.2,0,.41,0,.61,.01,.21,0,.41,.03,.61,.06v1.26h0Z"/>
    <path d="M166.85,50.53c0,.89-.28,1.66-.85,2.31-.45,.5-1.03,.88-1.74,1.13s-1.49,.38-2.32,.38-1.63-.13-2.34-.4c-.7-.27-1.3-.67-1.78-1.2-.35-.4-.61-.79-.77-1.18s-.26-.84-.29-1.36h1.28c.07,.74,.38,1.38,.93,1.93,.37,.35,.8,.61,1.31,.77,.5,.16,1.05,.24,1.66,.24,.65,0,1.23-.07,1.73-.23,.5-.15,.91-.39,1.23-.7,.23-.23,.41-.47,.51-.7,.11-.23,.16-.53,.16-.9,0-.57-.2-1.07-.59-1.49-.39-.43-.97-.69-1.72-.79l-2.44-.33c-.52-.07-1.03-.19-1.54-.38s-.94-.48-1.29-.88c-.47-.55-.7-1.21-.7-1.98,0-.5,.1-.96,.29-1.37,.19-.41,.46-.77,.79-1.07,.45-.42,.97-.72,1.57-.9,.59-.18,1.22-.28,1.87-.28,.75,0,1.47,.12,2.13,.36,.67,.24,1.22,.61,1.66,1.12,.28,.34,.51,.7,.68,1.1,.17,.4,.26,.8,.28,1.21h-1.26c-.03-.2-.1-.44-.19-.73-.09-.28-.24-.54-.44-.78-.28-.33-.67-.6-1.15-.8-.49-.2-1.05-.3-1.71-.3-.97,0-1.72,.19-2.26,.58-.65,.47-.98,1.05-.98,1.73,0,.54,.17,.99,.5,1.36,.33,.37,.98,.62,1.93,.75l2.39,.33c.59,.08,1.1,.24,1.53,.47,.44,.23,.79,.5,1.08,.82,.28,.32,.5,.66,.64,1.04,.14,.37,.21,.75,.21,1.14Z"/>
    <path d="M170.69,37.98v-1.76h1.76v1.76h-1.76Zm.23,16.04v-12.55h1.33v12.55h-1.33Z"/>
    <path d="M183.32,53.9c-.35,.08-.7,.16-1.04,.21-.34,.06-.69,.09-1.04,.09-1.17,0-2-.34-2.5-1.02-.49-.68-.74-1.56-.74-2.65v-7.91h-2.51v-1.15h2.51v-3.47l1.26-.3v3.77h3.89v1.15h-3.89v7.86c0,.37,.03,.71,.09,1.02s.17,.58,.33,.8c.16,.23,.37,.4,.64,.53,.27,.13,.61,.19,1.03,.19,.34,0,.67-.02,.99-.06,.33-.04,.66-.1,.99-.16v1.1h0Z"/>
    <path d="M190.12,56.71c-.32,.82-.75,1.45-1.29,1.89-.54,.44-1.24,.67-2.1,.67-.25,0-.48,0-.68-.03-.2-.02-.37-.04-.5-.08-.17-.03-.3-.08-.4-.13v-1.05c.17,.03,.34,.06,.53,.08,.3,.05,.64,.08,1,.08,.6,0,1.08-.18,1.43-.53,.35-.35,.64-.79,.85-1.33l.8-2.06-5.15-12.75h1.36l4.39,11.15,4.22-11.15h1.36l-5.82,15.24Z"/>
  </g>
</svg>